<?xml version="1.0" encoding="UTF-8" standalone="no"?>
<svg
   xmlns:dc="http://purl.org/dc/elements/1.1/"
   xmlns:cc="http://creativecommons.org/ns#"
   xmlns:rdf="http://www.w3.org/1999/02/22-rdf-syntax-ns#"
   xmlns:svg="http://www.w3.org/2000/svg"
   xmlns="http://www.w3.org/2000/svg"
   width="3000mm"
   height="400mm"
   viewBox="0 0 3000 400"
   version="1.1"
   id="svg8">
  <defs
     id="defs2" />
  <metadata
     id="metadata5">
    <rdf:RDF>
      <cc:Work
         rdf:about="">
        <dc:format>image/svg+xml</dc:format>
        <dc:type
           rdf:resource="http://purl.org/dc/dcmitype/StillImage" />
        <dc:title></dc:title>
      </cc:Work>
    </rdf:RDF>
  </metadata>
  <g
     id="layer1">
    <g
       aria-label="FUTUREWEB"
       id="text12"
       style="font-style:normal;font-variant:normal;font-weight:900;font-stretch:normal;font-size:409.722px;line-height:256.077px;font-family:'Montserrat Alternates';-inkscape-font-specification:'Montserrat Alternates, Heavy';font-variant-ligatures:normal;font-variant-caps:normal;font-variant-numeric:normal;font-variant-east-asian:normal;text-align:start;letter-spacing:0px;word-spacing:0px;writing-mode:lr-tb;text-anchor:start;fill:#5555ff;fill-opacity:1;stroke:none;stroke-width:0.264584">
      <g
         id="g2052">
        <g
           id="g2065"
           transform="translate(-6.8e-5,0.4096755)">
          <g
             id="g2077">
            <path
               d="m 232.11692,128.29864 q -57.7708,0 -57.7708,49.16664 v 1.22916 h 101.61105 v 72.93051 H 174.34612 v 91.77773 H 77.651736 V 179.51389 q 0,-62.27775 38.104144,-95.87495 38.10414,-33.597203 108.1666,-33.597203 24.99304,0 47.11803,4.916664 22.12499,4.506942 38.10415,12.701382 l -27.8611,72.930517 q -11.47222,-6.14583 -24.58332,-9.01389 -12.70138,-3.27777 -24.58332,-3.27777 z"
               style="font-style:normal;font-variant:normal;font-weight:900;font-stretch:normal;font-size:409.722px;font-family:'Montserrat Alternates';-inkscape-font-specification:'Montserrat Alternates, Heavy';font-variant-ligatures:normal;font-variant-caps:normal;font-variant-numeric:normal;font-variant-east-asian:normal;fill:#5555ff;stroke-width:0.264584"
               id="path2022" />
            <path
               d="M 613.46524,54.958499 V 341.76389 H 519.6389 v -30.72915 q -29.09026,37.2847 -79.48606,37.2847 -50.39581,0 -78.2569,-33.18748 -27.8611,-33.18748 -27.8611,-94.23606 V 54.958499 h 96.69439 V 218.02785 q 0,26.22221 11.0625,39.33331 11.06249,12.70138 30.72914,12.70138 19.25694,0 31.5486,-13.93055 12.70138,-14.34026 12.70138,-41.38192 V 54.958499 Z"
               style="font-style:normal;font-variant:normal;font-weight:900;font-stretch:normal;font-size:409.722px;font-family:'Montserrat Alternates';-inkscape-font-specification:'Montserrat Alternates, Heavy';font-variant-ligatures:normal;font-variant-caps:normal;font-variant-numeric:normal;font-variant-east-asian:normal;fill:#5555ff;stroke-width:0.264584"
               id="path2024" />
            <path
               d="m 901.39699,157.79865 q -33.18748,-18.43749 -67.1944,-25.40277 V 344.22215 H 737.5082 V 132.39588 q -34.00693,6.96528 -67.19441,25.40277 L 638.35548,88.965349 q 30.72915,-18.437489 68.83329,-28.270817 38.10415,-9.833328 78.66662,-9.833328 40.56248,0 78.66662,9.833328 38.10415,9.833328 68.8333,28.270817 z"
               style="font-style:normal;font-variant:normal;font-weight:900;font-stretch:normal;font-size:409.722px;font-family:'Montserrat Alternates';-inkscape-font-specification:'Montserrat Alternates, Heavy';font-variant-ligatures:normal;font-variant-caps:normal;font-variant-numeric:normal;font-variant-east-asian:normal;fill:#5555ff;stroke-width:0.264584"
               id="path2026" />
            <path
               d="M 1237.6759,55.777958 V 342.58335 h -93.8263 V 311.8542 q -29.0903,37.2847 -79.4861,37.2847 -50.3958,0 -78.25689,-33.18748 -27.8611,-33.18748 -27.8611,-94.23606 V 55.777958 h 96.69439 V 218.84731 q 0,26.22221 11.0625,39.33331 11.0625,12.70138 30.7292,12.70138 19.2569,0 31.5486,-13.93055 12.7014,-14.34026 12.7014,-41.38192 V 55.777958 Z"
               style="font-style:normal;font-variant:normal;font-weight:900;font-stretch:normal;font-size:409.722px;font-family:'Montserrat Alternates';-inkscape-font-specification:'Montserrat Alternates, Heavy';font-variant-ligatures:normal;font-variant-caps:normal;font-variant-numeric:normal;font-variant-east-asian:normal;fill:#5555ff;stroke-width:0.264584"
               id="path2028" />
            <path
               d="m 1385.4827,266.37498 h -26.2222 v 72.11107 h -96.6944 V 51.680663 h 138.0763 q 39.7431,0 69.243,13.111104 29.5,13.111103 45.4792,37.694423 15.9791,24.58332 15.9791,57.36107 0,30.72915 -13.9305,53.67358 -13.9306,22.94444 -40.1528,36.46526 l 60.2292,88.49995 h -103.25 z m 48.3472,-106.52772 q 0,-15.97915 -9.8333,-24.58332 -9.8334,-9.01388 -29.5,-9.01388 h -35.2361 v 67.19441 h 35.2361 q 19.6666,0 29.5,-8.60416 9.8333,-9.01389 9.8333,-24.99305 z"
               style="font-style:normal;font-variant:normal;font-weight:900;font-stretch:normal;font-size:409.722px;font-family:'Montserrat Alternates';-inkscape-font-specification:'Montserrat Alternates, Heavy';font-variant-ligatures:normal;font-variant-caps:normal;font-variant-numeric:normal;font-variant-east-asian:normal;fill:#5555ff;stroke-width:0.264584"
               id="path2030" />
            <path
               d="m 1834.0254,320.45831 q -22.9444,11.88194 -55.3124,18.84721 -32.3681,6.55555 -65.9653,6.55555 -48.3472,0 -82.3541,-11.06249 -33.5972,-11.47222 -50.8055,-31.5486 -17.2083,-20.48609 -17.2083,-46.7083 0,-21.71527 11.4722,-38.92359 11.8819,-17.20832 33.5972,-26.63193 -16.3889,-9.01388 -24.9931,-23.35415 -8.1944,-14.74999 -8.1944,-32.36804 0,-24.1736 15.5694,-44.249972 15.9792,-20.4861 48.3472,-32.777759 32.7778,-12.29166 80.3055,-12.29166 29.0903,0 56.9514,5.326386 28.2708,4.916664 50.3958,13.520826 l -26.2222,70.472179 q -38.5139,-15.56943 -77.4375,-15.56943 -25.4027,0 -38.1041,5.7361 -12.2917,5.73611 -12.2917,15.97916 0,8.60416 6.1459,13.1111 6.1458,4.50695 20.4861,4.50695 h 83.993 v 71.29162 h -90.5486 q -15.9791,0 -24.1736,5.32639 -7.7847,4.91666 -7.7847,14.34027 0,22.12498 56.5416,22.12498 21.7153,0 45.8889,-5.7361 24.5833,-6.14583 43.4305,-15.97916 z"
               style="font-style:normal;font-variant:normal;font-weight:900;font-stretch:normal;font-size:409.722px;font-family:'Montserrat Alternates';-inkscape-font-specification:'Montserrat Alternates, Heavy';font-variant-ligatures:normal;font-variant-caps:normal;font-variant-numeric:normal;font-variant-east-asian:normal;fill:#5555ff;stroke-width:0.264584"
               id="path2032" />
            <path
               d="M 2318.214,56.597417 V 222.53482 q 0,61.04858 -37.2847,94.23606 -36.875,33.18748 -103.6597,33.18748 -54.9027,0 -88.9097,-27.04165 -33.5972,27.04165 -88.9096,27.04165 -66.375,0 -103.6597,-33.18748 -36.875,-33.18748 -36.875,-94.23606 V 56.597417 H 1955.61 V 219.66677 q 0,26.22221 10.2431,39.33331 10.243,12.70138 31.9583,12.70138 21.7152,0 31.9583,-12.70138 10.243,-13.1111 10.243,-39.33331 V 56.597417 h 96.6944 V 219.66677 q 0,26.22221 10.2431,39.33331 10.6528,12.70138 32.368,12.70138 21.7153,0 31.9583,-12.70138 10.2431,-13.1111 10.2431,-39.33331 V 56.597417 Z"
               style="fill:#3737c8;stroke-width:0.264584"
               id="path2034" />
            <path
               d="m 2614.75,327.83331 q -22.9444,11.88194 -55.3125,18.84721 -32.368,6.55555 -65.9652,6.55555 -48.3472,0 -82.3541,-11.06249 -33.5972,-11.47222 -50.8056,-31.5486 -17.2083,-20.48609 -17.2083,-46.7083 0,-21.71527 11.4722,-38.92359 11.882,-17.20832 33.5972,-26.63193 -16.3888,-9.01388 -24.993,-23.35415 -8.1944,-14.74999 -8.1944,-32.36804 0,-24.1736 15.5694,-44.24997 15.9792,-20.4861 48.3472,-32.777759 32.7777,-12.29166 80.3055,-12.29166 29.0903,0 56.9514,5.326386 28.2708,4.916664 50.3958,13.520826 l -26.2222,70.472177 q -38.5139,-15.56943 -77.4375,-15.56943 -25.4028,0 -38.1041,5.7361 -12.2917,5.73611 -12.2917,15.97916 0,8.60416 6.1458,13.1111 6.1459,4.50695 20.4861,4.50695 h 83.993 v 71.29162 h -90.5485 q -15.9792,0 -24.1736,5.32639 -7.7847,4.91666 -7.7847,14.34027 0,22.12498 56.5416,22.12498 21.7153,0 45.8889,-5.7361 24.5833,-6.14583 43.4305,-15.97916 z"
               style="fill:#3737c8;stroke-width:0.264584"
               id="path2036" />
            <path
               d="m 2869.0845,197.54172 q 25.4028,9.42361 39.3333,27.45138 13.9306,18.02776 13.9306,43.43053 0,37.69442 -31.1389,58.59024 -31.1389,20.4861 -90.1388,20.4861 H 2639.6402 V 60.694583 h 153.236 q 57.3611,0 86.4514,20.486099 29.4999,20.486098 29.4999,54.493018 0,20.07638 -10.243,36.05554 -9.8333,15.97916 -29.5,25.81248 z m -134.3888,-69.24301 v 42.61108 h 45.0694 q 31.5486,0 31.5486,-21.30554 0,-21.30554 -31.5486,-21.30554 z m 58.1805,151.59713 q 31.9583,0 31.9583,-22.53471 0,-22.53471 -31.9583,-22.53471 h -58.1805 v 45.06942 z"
               style="fill:#3737c8;stroke-width:0.264584"
               id="path2038" />
          </g>
        </g>
      </g>
    </g>
  </g>
</svg>
